<?xml version="1.0" standalone="no"?>
<!DOCTYPE svg PUBLIC "-//W3C//DTD SVG 20010904//EN"
 "http://www.w3.org/TR/2001/REC-SVG-20010904/DTD/svg10.dtd">
<svg version="1.0" xmlns="http://www.w3.org/2000/svg"
 width="144.000000pt" height="144.000000pt" viewBox="0 0 144.000000 144.000000"
 preserveAspectRatio="xMidYMid meet">
<metadata>
Created by potrace 1.14, written by Peter Selinger 2001-2017
</metadata>
<g transform="translate(0.000000,144.000000) scale(0.100000,-0.100000)"
fill="#000000" stroke="none">
<path d="M690 1364 c0 -6 -25 -10 -65 -9 -36 0 -65 -3 -65 -8 0 -5 -7 -4 -16
3 -12 11 -15 11 -12 -1 2 -8 -4 -13 -14 -13 -10 1 -18 -3 -18 -9 0 -6 -3 -7
-7 -4 -3 4 -12 2 -20 -4 -7 -6 -13 -8 -13 -3 0 4 -7 -1 -16 -12 -8 -10 -12
-12 -8 -5 4 9 -7 4 -26 -9 -19 -13 -30 -17 -26 -9 4 7 -1 3 -12 -10 -12 -15
-24 -21 -32 -16 -8 5 -11 4 -6 -3 3 -6 -3 -16 -14 -22 -11 -6 -20 -18 -20 -28
0 -15 -2 -15 -10 -2 -9 13 -14 8 -11 -12 0 -4 -8 -9 -18 -13 -10 -3 -27 -15
-37 -28 -13 -14 -14 -18 -4 -12 9 6 7 2 -3 -7 -11 -10 -16 -18 -11 -18 4 0 -1
-9 -12 -20 -23 -23 -35 -39 -52 -69 -11 -19 -11 -22 0 -16 7 4 2 -3 -12 -15
-14 -12 -18 -18 -10 -14 13 7 13 5 1 -9 -7 -9 -11 -23 -8 -32 4 -8 1 -17 -5
-21 -7 -5 -8 -2 -3 7 5 8 4 11 -1 6 -5 -5 -9 -12 -9 -15 0 -4 -4 -13 -9 -21
-7 -10 -6 -12 4 -6 9 6 11 4 5 -6 -5 -7 -9 -31 -10 -54 0 -22 -5 -46 -9 -54
-6 -9 -5 -12 0 -8 6 3 10 -11 10 -34 0 -21 -4 -39 -8 -39 -5 0 -6 -6 -1 -12 4
-7 8 -42 9 -77 2 -37 8 -67 15 -71 6 -5 9 -15 6 -25 -5 -11 -3 -14 5 -9 8 5 9
2 5 -9 -3 -10 -2 -17 3 -17 6 0 10 -9 10 -20 0 -11 5 -20 10 -20 6 0 10 -9 10
-21 0 -11 4 -18 9 -15 5 3 12 -1 15 -10 4 -10 2 -13 -7 -8 -6 4 0 -6 16 -23
15 -16 25 -32 22 -36 -3 -4 -2 -5 1 -3 9 7 64 -45 64 -60 0 -16 34 -36 45 -26
5 4 6 3 3 -3 -3 -5 8 -23 25 -39 22 -20 28 -23 23 -10 -5 15 -2 14 14 -4 11
-13 24 -21 30 -17 6 4 10 3 9 -2 -3 -20 3 -23 24 -12 20 11 21 11 8 -5 -12
-14 -12 -16 4 -10 12 5 16 4 12 -3 -4 -6 -1 -11 6 -10 35 1 48 -4 41 -15 -5
-8 0 -7 11 2 10 8 16 10 12 4 -4 -7 2 -14 13 -17 13 -3 18 -1 13 6 -5 9 -3 9
8 1 8 -6 35 -10 62 -9 27 1 47 -3 47 -9 0 -7 3 -8 8 -1 4 6 16 10 27 10 11 0
23 -4 27 -10 5 -7 8 -6 8 0 0 7 27 11 68 10 47 0 71 4 80 15 8 8 11 10 8 3 -9
-16 24 -10 35 8 5 8 9 10 9 5 0 -5 7 -3 15 4 8 7 15 9 15 4 0 -4 7 1 16 12 8
10 12 13 9 5 -6 -9 -1 -9 17 3 14 9 28 13 33 9 4 -5 5 -2 1 4 -4 8 -1 13 8 13
9 0 16 5 16 11 0 5 4 8 9 5 5 -3 12 1 15 10 3 8 11 12 17 8 8 -5 9 -3 5 5 -5
8 0 14 13 18 11 3 23 13 26 22 3 10 17 24 30 31 14 7 23 15 20 18 -2 2 6 13
18 24 12 11 15 17 7 13 -10 -4 -9 -2 3 8 9 8 17 19 17 25 0 6 6 15 13 19 6 4
18 19 25 32 11 19 11 22 0 16 -7 -4 -2 3 12 15 14 12 18 18 10 14 -12 -6 -13
-5 -3 8 7 8 10 18 6 21 -3 4 -1 7 5 7 6 0 9 7 6 15 -4 9 1 18 11 21 13 5 14 9
3 15 -7 5 -8 9 -3 9 6 0 10 25 10 60 0 35 4 60 10 60 6 0 7 3 0 8 -15 10 -17
32 -5 46 5 7 7 16 3 19 -3 4 -8 39 -9 79 -2 39 -8 74 -14 78 -6 4 -12 20 -14
36 -6 39 -16 64 -27 64 -5 0 -9 6 -9 13 0 7 -10 18 -21 25 -14 9 -18 17 -11
24 7 7 0 19 -19 37 -16 16 -26 31 -22 34 3 4 -1 7 -10 7 -9 0 -19 5 -23 12 -5
7 -3 8 7 3 12 -8 12 -6 0 8 -7 9 -19 17 -26 17 -7 0 -19 8 -26 18 -13 16 -13
16 6 2 19 -14 19 -14 6 2 -7 10 -17 16 -21 13 -5 -3 -17 6 -28 19 -13 18 -22
22 -30 14 -7 -7 -14 -4 -24 11 -7 11 -18 21 -24 21 -7 0 -14 7 -18 15 -3 8 -9
15 -13 14 -4 -1 -11 0 -15 1 -16 5 -28 8 -44 9 -9 1 -12 6 -8 14 5 7 0 6 -11
-3 -10 -8 -16 -10 -12 -4 4 7 -2 14 -13 17 -13 3 -18 1 -13 -6 5 -9 3 -9 -8
-1 -8 6 -35 10 -61 9 -28 -1 -48 3 -48 9 0 7 -3 8 -8 1 -4 -5 -16 -10 -27 -10
-11 0 -23 5 -27 10 -5 7 -8 6 -8 -1z m114 -97 c2 3 14 -1 26 -7 18 -10 21 -10
14 2 -4 7 3 4 15 -6 22 -20 22 -20 15 0 -6 17 -5 17 9 -2 11 -14 25 -20 42
-19 14 2 23 -1 20 -5 -3 -5 8 -15 25 -24 20 -9 28 -10 24 -3 -3 7 2 3 10 -7 9
-11 16 -16 16 -11 0 4 8 -2 19 -13 10 -12 23 -22 29 -22 7 0 19 -11 28 -25 9
-14 20 -22 25 -19 8 5 12 -8 7 -22 -2 -3 8 -12 22 -19 15 -9 19 -15 10 -15 -9
0 -5 -6 10 -15 14 -8 21 -14 16 -15 -6 0 -1 -7 10 -16 10 -8 12 -12 5 -8 -9 5
-6 -5 7 -23 12 -17 22 -38 22 -46 0 -9 4 -18 10 -22 5 -3 7 -12 4 -19 -3 -7 1
-20 9 -27 8 -8 13 -32 12 -56 -1 -23 1 -40 5 -38 3 2 3 -18 0 -46 -4 -32 -3
-49 4 -49 7 0 8 -3 1 -8 -5 -4 -10 -18 -9 -32 1 -35 -6 -51 -20 -43 -7 4 -7 2
1 -7 9 -10 8 -16 -3 -28 -10 -9 -12 -17 -6 -21 7 -4 5 -13 -4 -25 -8 -11 -15
-16 -15 -10 -1 5 -4 -4 -8 -21 -4 -16 -12 -29 -19 -28 -6 2 -9 -3 -6 -10 2 -7
-4 -22 -14 -32 -10 -11 -21 -28 -25 -37 -3 -10 -11 -18 -17 -18 -6 0 -8 -4 -5
-10 3 -5 1 -10 -4 -10 -16 0 -51 -32 -45 -42 3 -4 -1 -6 -8 -3 -7 3 -28 -9
-47 -25 -19 -17 -41 -28 -48 -26 -7 3 -13 1 -13 -5 0 -10 -44 -31 -73 -34 -11
-1 -23 -8 -28 -16 -7 -12 -9 -12 -9 1 0 10 -3 11 -8 4 -4 -6 -17 -10 -30 -9
-13 1 -25 -3 -29 -8 -3 -5 -10 -3 -15 4 -8 12 -10 12 -15 0 -5 -11 -7 -11 -14
0 -6 9 -9 10 -9 2 0 -8 -9 -9 -29 -3 -19 5 -33 4 -40 -3 -8 -8 -11 -8 -11 1 0
6 -7 9 -15 6 -8 -4 -22 -1 -30 6 -11 9 -15 9 -15 1 0 -7 -5 -9 -10 -6 -6 4 -8
11 -5 16 3 5 0 6 -8 3 -8 -3 -18 -1 -21 4 -3 5 -17 8 -30 7 -14 -2 -24 2 -23
8 1 5 -8 13 -20 16 -13 3 -31 14 -42 23 -11 9 -22 14 -25 11 -3 -3 -8 2 -12
11 -3 9 -10 13 -15 10 -5 -3 -9 2 -9 10 0 9 -4 15 -9 13 -5 -1 -20 10 -34 25
-14 15 -29 24 -33 20 -5 -4 -2 1 6 11 7 10 9 17 4 15 -11 -4 -48 33 -52 51 -1
7 -10 20 -18 28 -8 9 -13 22 -9 30 3 10 1 13 -9 10 -9 -4 -12 0 -9 13 3 10 0
21 -6 24 -5 4 -7 14 -4 23 5 12 3 14 -8 8 -12 -8 -12 -6 0 9 12 14 12 17 0 14
-9 -2 -14 7 -14 27 -1 17 -5 36 -9 43 -4 7 -3 12 3 12 6 0 6 11 1 30 -6 21 -5
30 3 31 7 0 7 3 -2 6 -11 5 -11 7 0 14 12 8 12 10 0 18 -9 6 -10 10 -2 16 9 5
9 11 -1 23 -11 13 -11 14 1 8 9 -6 12 -5 9 5 -3 8 1 26 8 40 7 15 10 29 7 33
-4 3 -1 6 5 6 6 0 9 7 5 17 -5 12 -3 14 7 8 9 -5 11 -4 6 3 -4 6 1 23 10 37 9
14 13 25 10 25 -4 0 2 10 14 22 11 12 20 26 20 30 0 5 5 6 12 2 6 -4 8 -3 5 3
-4 6 2 22 14 34 11 13 17 18 13 10 -5 -10 -3 -12 5 -7 7 5 10 14 7 22 -3 9 2
14 14 14 11 0 20 5 20 11 0 5 -5 7 -12 3 -7 -4 -8 -3 -4 4 4 7 14 12 23 12 9
0 21 7 27 14 6 8 18 16 26 18 8 2 20 9 25 16 6 7 20 14 32 15 12 0 21 6 20 11
-1 6 8 11 21 12 12 1 29 2 37 3 8 0 15 9 15 19 0 13 2 14 9 3 5 -8 11 -9 15
-3 3 5 35 9 71 8 36 0 65 2 65 5 0 4 16 3 34 -1 19 -4 37 -6 40 -3z"/>
<path d="M757 1117 c4 -6 -2 -8 -15 -5 -12 4 -22 3 -22 -1 0 -8 -14 -11 -67
-13 -18 -1 -33 -6 -33 -10 0 -5 -4 -6 -10 -3 -5 3 -10 2 -10 -3 0 -6 -7 -13
-16 -16 -10 -4 -13 -2 -8 7 6 8 3 8 -9 -1 -9 -8 -21 -11 -27 -7 -5 3 -10 0
-10 -8 0 -8 -7 -18 -16 -21 -10 -4 -13 -2 -9 7 4 6 -1 3 -10 -8 -9 -11 -21
-19 -26 -18 -5 2 -9 -5 -9 -15 0 -14 -2 -15 -10 -2 -9 13 -14 7 -11 -12 0 -5
-4 -8 -10 -8 -15 0 -49 -39 -49 -57 0 -8 -4 -12 -9 -9 -4 3 -17 -12 -27 -34
-10 -22 -22 -40 -26 -40 -3 0 -4 -14 -1 -31 3 -21 1 -29 -6 -24 -15 9 -14 -8
2 -24 10 -10 9 -11 -4 -6 -10 4 -19 0 -23 -10 -4 -11 -2 -14 6 -9 8 5 9 2 5
-9 -4 -10 -2 -17 5 -17 7 0 7 -4 -1 -14 -10 -12 -8 -13 8 -9 12 3 21 10 21 15
0 5 4 7 9 4 5 -3 12 1 15 9 3 8 11 14 18 13 7 -2 12 3 10 10 -1 8 2 11 8 7 5
-3 10 -1 10 5 0 6 4 9 8 6 5 -3 16 3 25 12 27 29 51 47 59 44 5 -1 8 3 8 9 0
5 5 7 10 4 6 -3 10 -1 10 4 0 6 3 10 8 10 19 -3 32 2 29 13 -1 7 9 13 22 14
13 1 26 6 30 12 4 7 16 13 28 15 11 1 28 11 37 20 19 19 31 23 21 7 -4 -6 10
-3 29 7 20 9 36 21 36 27 0 6 5 4 10 -4 6 -9 10 -11 10 -3 0 7 7 10 15 7 8 -4
15 -1 15 6 0 7 7 10 15 6 8 -3 15 0 15 6 0 6 3 8 7 5 3 -4 12 -2 20 4 7 6 13
9 13 5 0 -3 9 3 20 14 43 43 26 105 -27 96 -20 -4 -22 -2 -13 9 9 11 7 13 -7
11 -10 -2 -21 2 -25 8 -5 8 -8 7 -8 -2 0 -7 -5 -10 -11 -7 -18 12 -59 13 -52
2z"/>
<path d="M924 938 c-5 -7 -3 -8 6 -3 9 5 11 4 6 -4 -6 -9 -11 -9 -22 0 -8 6
-14 7 -14 2 0 -6 -12 -9 -27 -8 -16 1 -34 -3 -42 -9 -12 -9 -13 -8 -6 4 7 12
6 13 -7 3 -8 -7 -17 -10 -20 -7 -3 3 -9 0 -14 -7 -5 -8 -3 -10 6 -4 9 6 11 4
6 -4 -5 -7 -15 -10 -24 -6 -8 3 -19 0 -24 -7 -6 -10 -8 -10 -8 0 0 7 -8 4 -20
-8 -12 -12 -25 -18 -30 -15 -5 3 -16 -5 -26 -17 -14 -19 -15 -20 -10 -4 6 18
6 19 -11 4 -10 -9 -28 -19 -40 -22 -13 -4 -23 -12 -23 -18 0 -6 -3 -9 -6 -5
-6 6 -21 -4 -54 -37 -10 -10 -23 -15 -29 -11 -6 3 -11 1 -11 -5 0 -6 -5 -8
-10 -5 -6 4 -9 2 -8 -3 4 -12 -69 -82 -85 -82 -7 0 -6 -4 3 -10 10 -6 11 -10
3 -10 -7 0 -13 -6 -13 -14 0 -8 -5 -16 -10 -18 -10 -3 -14 -30 -11 -76 0 -13
6 -20 11 -17 6 3 10 2 10 -3 0 -6 15 -6 41 -1 23 6 44 7 47 4 3 -2 11 0 18 6
8 7 14 7 19 -1 4 -7 17 -4 38 9 37 22 82 24 98 5 8 -10 6 -12 -10 -9 -11 2
-23 0 -26 -5 -3 -5 -12 -7 -19 -4 -7 3 -21 -2 -30 -11 -9 -9 -16 -13 -16 -9 0
4 -7 -1 -16 -12 -8 -10 -12 -12 -8 -4 4 8 -5 3 -20 -11 -24 -22 -32 -40 -35
-72 -1 -5 -6 -5 -13 -1 -7 4 -8 3 -4 -4 4 -7 15 -12 24 -12 14 0 14 -2 3 -9
-11 -7 -10 -11 5 -19 11 -5 25 -7 32 -5 6 3 12 -2 12 -11 0 -9 3 -15 8 -15 4
1 9 0 12 -1 15 -7 252 -5 257 2 2 5 11 4 19 -3 11 -9 15 -8 20 5 3 9 10 13 15
10 5 -3 9 0 9 6 0 7 7 9 16 6 10 -4 25 1 34 9 10 9 27 17 38 18 11 0 18 5 16
9 -3 4 2 8 11 8 9 0 13 5 10 11 -4 6 0 9 11 7 12 -2 19 3 19 12 0 8 6 20 14
26 15 12 25 48 11 39 -4 -3 -10 1 -13 9 -3 7 -28 19 -56 26 -28 7 -49 15 -46
19 2 4 -25 7 -60 7 -36 -1 -65 3 -65 8 0 6 -5 5 -12 -2 -15 -15 -31 -16 -22 0
5 7 3 8 -6 3 -21 -13 -89 -12 -94 2 -7 17 1 19 56 18 27 0 44 4 41 9 -4 5 1 7
10 3 10 -4 16 -2 14 5 -1 8 17 12 56 13 31 0 57 4 57 8 0 5 5 5 10 2 6 -3 10
-1 10 4 0 6 9 11 20 11 11 0 20 -4 20 -10 0 -5 5 -10 11 -10 5 0 7 5 3 11 -4
7 -1 10 7 7 8 -3 13 -9 12 -14 -3 -16 131 -11 145 6 12 13 13 13 6 0 -4 -8 -3
-11 1 -7 26 23 22 125 -7 173 -12 22 -25 41 -28 44 -4 3 -9 13 -13 23 -4 11
-12 15 -18 11 -7 -4 -9 -3 -6 3 4 6 -6 21 -21 34 -20 18 -23 19 -12 4 15 -20
15 -20 -8 -1 -13 11 -33 21 -45 23 -12 2 -23 8 -25 13 -5 13 -19 13 -28 -2z"/>
<path d="M1050 1281 c0 -5 5 -13 10 -16 6 -3 10 -2 10 4 0 5 -4 13 -10 16 -5
3 -10 2 -10 -4z"/>
<path d="M1265 1060 c3 -5 11 -10 16 -10 6 0 7 5 4 10 -3 6 -11 10 -16 10 -6
0 -7 -4 -4 -10z"/>
<path d="M221 287 c2 -1 13 -9 24 -17 19 -14 19 -14 6 3 -7 9 -18 17 -24 17
-6 0 -8 -1 -6 -3z"/>
</g>
</svg>
